<mxfile host="app.diagrams.net" agent="Mozilla/5.0 (Windows NT 10.0; Win64; x64) AppleWebKit/537.36 (KHTML, like Gecko) Chrome/138.0.0.0 Safari/537.36" version="27.1.6">
  <diagram name="Página-1" id="IpmAKofrDw2QBqaIdOL2">
    <mxGraphModel grid="1" page="1" gridSize="10" guides="1" tooltips="1" connect="1" arrows="1" fold="1" pageScale="1" pageWidth="827" pageHeight="1169" math="0" shadow="0">
      <root>
        <mxCell id="0" />
        <mxCell id="1" parent="0" />
        <mxCell id="emeNvtZWzEPwYmurZ9CY-1" value="CU028 Cancelar evento (solicitud)" style="swimlane;childLayout=stackLayout;resizeParent=1;resizeParentMax=0;startSize=20;horizontal=0;horizontalStack=1;" vertex="1" parent="1">
          <mxGeometry x="-40" y="-1064" width="1180" height="1040" as="geometry">
            <mxRectangle x="200" y="80" width="40" height="50" as="alternateBounds" />
          </mxGeometry>
        </mxCell>
        <mxCell id="ycTayPr6X4MgAZ-6NEUM-35" style="edgeStyle=orthogonalEdgeStyle;rounded=0;orthogonalLoop=1;jettySize=auto;html=1;exitX=1;exitY=0.5;exitDx=0;exitDy=0;fillColor=#f8cecc;strokeColor=#b85450;" edge="1" parent="emeNvtZWzEPwYmurZ9CY-1" source="ycTayPr6X4MgAZ-6NEUM-32" target="ycTayPr6X4MgAZ-6NEUM-33">
          <mxGeometry relative="1" as="geometry" />
        </mxCell>
        <mxCell id="i29hLlBPtLxp7JVSZJH6-5" style="edgeStyle=orthogonalEdgeStyle;rounded=0;orthogonalLoop=1;jettySize=auto;html=1;exitX=0.5;exitY=1;exitDx=0;exitDy=0;entryX=0;entryY=0.5;entryDx=0;entryDy=0;" edge="1" parent="emeNvtZWzEPwYmurZ9CY-1" source="QA8IRypYu4qGjrA7JDfg-12" target="i29hLlBPtLxp7JVSZJH6-3">
          <mxGeometry relative="1" as="geometry">
            <mxPoint x="216" y="354" as="targetPoint" />
            <Array as="points">
              <mxPoint x="215" y="380" />
              <mxPoint x="690" y="380" />
            </Array>
          </mxGeometry>
        </mxCell>
        <mxCell id="emeNvtZWzEPwYmurZ9CY-4" value="Cliente" style="swimlane;startSize=20;" vertex="1" parent="emeNvtZWzEPwYmurZ9CY-1">
          <mxGeometry x="20" width="380" height="1040" as="geometry" />
        </mxCell>
        <mxCell id="i29hLlBPtLxp7JVSZJH6-1" style="edgeStyle=orthogonalEdgeStyle;rounded=0;orthogonalLoop=1;jettySize=auto;html=1;exitX=0.5;exitY=1;exitDx=0;exitDy=0;entryX=0.5;entryY=0;entryDx=0;entryDy=0;" edge="1" parent="emeNvtZWzEPwYmurZ9CY-4" source="emeNvtZWzEPwYmurZ9CY-5" target="ycTayPr6X4MgAZ-6NEUM-32">
          <mxGeometry relative="1" as="geometry" />
        </mxCell>
        <mxCell id="emeNvtZWzEPwYmurZ9CY-5" value="" style="ellipse;html=1;shape=startState;fillColor=#000000;strokeColor=#ff0000;fillStyle=auto;" vertex="1" parent="emeNvtZWzEPwYmurZ9CY-4">
          <mxGeometry x="180" y="30" width="30" height="30" as="geometry" />
        </mxCell>
        <mxCell id="emeNvtZWzEPwYmurZ9CY-79" style="edgeStyle=orthogonalEdgeStyle;rounded=0;orthogonalLoop=1;jettySize=auto;html=1;entryX=0;entryY=0.5;entryDx=0;entryDy=0;strokeColor=#FF0000;" edge="1" parent="emeNvtZWzEPwYmurZ9CY-4">
          <mxGeometry relative="1" as="geometry">
            <Array as="points">
              <mxPoint x="106" y="871" />
              <mxPoint x="106" y="652" />
            </Array>
            <mxPoint x="135" y="652" as="targetPoint" />
          </mxGeometry>
        </mxCell>
        <mxCell id="ycTayPr6X4MgAZ-6NEUM-32" value="Acceder al apartado &quot;Eventos" style="rounded=1;whiteSpace=wrap;html=1;arcSize=40;fontColor=#000000;fillColor=#ffffc0;strokeColor=#ff0000;" vertex="1" parent="emeNvtZWzEPwYmurZ9CY-4">
          <mxGeometry x="90" y="124" width="210" height="50" as="geometry" />
        </mxCell>
        <mxCell id="QA8IRypYu4qGjrA7JDfg-12" value="Pulsar el botón &quot;Cancelar&quot;" style="rounded=1;whiteSpace=wrap;html=1;arcSize=40;fontColor=#000000;fillColor=#ffffc0;strokeColor=#ff0000;" vertex="1" parent="emeNvtZWzEPwYmurZ9CY-4">
          <mxGeometry x="90" y="238.5" width="210" height="50" as="geometry" />
        </mxCell>
        <mxCell id="TpPl5ylptQVWsR3om8G2-5" value="&lt;span style=&quot;white-space-collapse: preserve;&quot;&gt;&lt;font face=&quot;Helvetica&quot; style=&quot;font-size: 12px;&quot;&gt;Diligenciar motivo de cancelación&lt;/font&gt;&lt;/span&gt;" style="rounded=1;whiteSpace=wrap;html=1;arcSize=40;fontColor=#000000;fillColor=#ffffc0;strokeColor=#ff0000;" vertex="1" parent="emeNvtZWzEPwYmurZ9CY-4">
          <mxGeometry x="90" y="460" width="210" height="50" as="geometry" />
        </mxCell>
        <mxCell id="QA8IRypYu4qGjrA7JDfg-19" value="&lt;font face=&quot;Calibri&quot;&gt;&lt;span style=&quot;font-size: 14.6667px; white-space-collapse: preserve;&quot;&gt;Pulsar el botón &quot;Enviar&quot;&lt;/span&gt;&lt;/font&gt;" style="rounded=1;whiteSpace=wrap;html=1;arcSize=40;fontColor=#000000;fillColor=#ffffc0;strokeColor=#ff0000;" vertex="1" parent="emeNvtZWzEPwYmurZ9CY-4">
          <mxGeometry x="120" y="583" width="180" height="60" as="geometry" />
        </mxCell>
        <mxCell id="i29hLlBPtLxp7JVSZJH6-10" style="edgeStyle=orthogonalEdgeStyle;rounded=0;orthogonalLoop=1;jettySize=auto;html=1;exitX=0.5;exitY=1;exitDx=0;exitDy=0;entryX=0.422;entryY=0;entryDx=0;entryDy=0;entryPerimeter=0;" edge="1" parent="emeNvtZWzEPwYmurZ9CY-4" source="TpPl5ylptQVWsR3om8G2-5" target="QA8IRypYu4qGjrA7JDfg-19">
          <mxGeometry relative="1" as="geometry">
            <mxPoint x="263.5" y="517" as="sourcePoint" />
          </mxGeometry>
        </mxCell>
        <mxCell id="i29hLlBPtLxp7JVSZJH6-9" style="edgeStyle=orthogonalEdgeStyle;rounded=0;orthogonalLoop=1;jettySize=auto;html=1;exitX=0.5;exitY=1;exitDx=0;exitDy=0;entryX=0.5;entryY=0;entryDx=0;entryDy=0;" edge="1" parent="emeNvtZWzEPwYmurZ9CY-1" source="i29hLlBPtLxp7JVSZJH6-3" target="TpPl5ylptQVWsR3om8G2-5">
          <mxGeometry relative="1" as="geometry">
            <mxPoint x="215" y="474" as="targetPoint" />
          </mxGeometry>
        </mxCell>
        <mxCell id="TpPl5ylptQVWsR3om8G2-2" style="edgeStyle=orthogonalEdgeStyle;rounded=0;orthogonalLoop=1;jettySize=auto;html=1;entryX=1;entryY=0.5;entryDx=0;entryDy=0;" edge="1" parent="emeNvtZWzEPwYmurZ9CY-1" source="TpPl5ylptQVWsR3om8G2-1" target="QA8IRypYu4qGjrA7JDfg-12">
          <mxGeometry relative="1" as="geometry">
            <mxPoint x="316" y="263.5" as="targetPoint" />
          </mxGeometry>
        </mxCell>
        <mxCell id="TpPl5ylptQVWsR3om8G2-14" style="edgeStyle=orthogonalEdgeStyle;rounded=0;orthogonalLoop=1;jettySize=auto;html=1;entryX=0;entryY=0.5;entryDx=0;entryDy=0;" edge="1" parent="emeNvtZWzEPwYmurZ9CY-1" source="TpPl5ylptQVWsR3om8G2-13" target="TpPl5ylptQVWsR3om8G2-5">
          <mxGeometry relative="1" as="geometry" />
        </mxCell>
        <mxCell id="TpPl5ylptQVWsR3om8G2-24" style="edgeStyle=orthogonalEdgeStyle;rounded=0;orthogonalLoop=1;jettySize=auto;html=1;entryX=0;entryY=0.5;entryDx=0;entryDy=0;" edge="1" parent="emeNvtZWzEPwYmurZ9CY-1" source="QA8IRypYu4qGjrA7JDfg-19" target="TpPl5ylptQVWsR3om8G2-8">
          <mxGeometry relative="1" as="geometry" />
        </mxCell>
        <mxCell id="emeNvtZWzEPwYmurZ9CY-8" value="Sistema" style="swimlane;startSize=20;" vertex="1" parent="emeNvtZWzEPwYmurZ9CY-1">
          <mxGeometry x="400" width="780" height="1040" as="geometry" />
        </mxCell>
        <mxCell id="ycTayPr6X4MgAZ-6NEUM-33" value="Redirige al apartado" style="rounded=1;whiteSpace=wrap;html=1;arcSize=40;fontColor=#000000;fillColor=#ffffc0;strokeColor=#ff0000;" vertex="1" parent="emeNvtZWzEPwYmurZ9CY-8">
          <mxGeometry x="310" y="109.5" width="180" height="79" as="geometry" />
        </mxCell>
        <mxCell id="emeNvtZWzEPwYmurZ9CY-17" value="" style="ellipse;html=1;shape=endState;fillColor=#000000;strokeColor=#ff0000;" vertex="1" parent="emeNvtZWzEPwYmurZ9CY-8">
          <mxGeometry x="370" y="1000" width="30" height="30" as="geometry" />
        </mxCell>
        <mxCell id="i29hLlBPtLxp7JVSZJH6-3" value="Mostrar formulario" style="rounded=1;whiteSpace=wrap;html=1;arcSize=40;fontColor=#000000;fillColor=#ffffc0;strokeColor=#ff0000;" vertex="1" parent="emeNvtZWzEPwYmurZ9CY-8">
          <mxGeometry x="295" y="354" width="210" height="50" as="geometry" />
        </mxCell>
        <mxCell id="i29hLlBPtLxp7JVSZJH6-15" style="edgeStyle=orthogonalEdgeStyle;rounded=0;orthogonalLoop=1;jettySize=auto;html=1;exitX=0.5;exitY=1;exitDx=0;exitDy=0;entryX=0.5;entryY=0;entryDx=0;entryDy=0;" edge="1" parent="emeNvtZWzEPwYmurZ9CY-8" source="i29hLlBPtLxp7JVSZJH6-11" target="TpPl5ylptQVWsR3om8G2-22">
          <mxGeometry relative="1" as="geometry">
            <mxPoint x="436" y="1004" as="targetPoint" />
          </mxGeometry>
        </mxCell>
        <mxCell id="i29hLlBPtLxp7JVSZJH6-11" value="&lt;font face=&quot;Calibri&quot;&gt;&lt;span style=&quot;font-size: 14.6667px; white-space-collapse: preserve;&quot;&gt;Mostrar mensaje de éxito&lt;/span&gt;&lt;/font&gt;" style="rounded=1;whiteSpace=wrap;html=1;arcSize=40;fontColor=#000000;fillColor=#ffffc0;strokeColor=#ff0000;" vertex="1" parent="emeNvtZWzEPwYmurZ9CY-8">
          <mxGeometry x="350" y="690" width="180" height="66" as="geometry" />
        </mxCell>
        <mxCell id="TpPl5ylptQVWsR3om8G2-1" value="Muestra lista de eventos" style="rounded=1;whiteSpace=wrap;html=1;arcSize=40;fontColor=#000000;fillColor=#ffffc0;strokeColor=#ff0000;" vertex="1" parent="emeNvtZWzEPwYmurZ9CY-8">
          <mxGeometry x="310" y="224" width="180" height="79" as="geometry" />
        </mxCell>
        <mxCell id="i29hLlBPtLxp7JVSZJH6-2" style="edgeStyle=orthogonalEdgeStyle;rounded=0;orthogonalLoop=1;jettySize=auto;html=1;exitX=0.5;exitY=1;exitDx=0;exitDy=0;entryX=0.5;entryY=0;entryDx=0;entryDy=0;" edge="1" parent="emeNvtZWzEPwYmurZ9CY-8" source="ycTayPr6X4MgAZ-6NEUM-33" target="TpPl5ylptQVWsR3om8G2-1">
          <mxGeometry relative="1" as="geometry" />
        </mxCell>
        <mxCell id="TpPl5ylptQVWsR3om8G2-8" value="¿Campos diligenciados?" style="rhombus;whiteSpace=wrap;html=1;fontColor=#000000;fillColor=#ffffc0;strokeColor=#ff0000;" vertex="1" parent="emeNvtZWzEPwYmurZ9CY-8">
          <mxGeometry x="145" y="593" width="150" height="40" as="geometry" />
        </mxCell>
        <mxCell id="TpPl5ylptQVWsR3om8G2-9" value="si" style="edgeStyle=orthogonalEdgeStyle;html=1;align=left;verticalAlign=bottom;endArrow=open;endSize=8;strokeColor=#ff0000;rounded=0;entryX=0.5;entryY=0;entryDx=0;entryDy=0;" edge="1" parent="emeNvtZWzEPwYmurZ9CY-8" source="TpPl5ylptQVWsR3om8G2-8" target="i29hLlBPtLxp7JVSZJH6-11">
          <mxGeometry x="-1" relative="1" as="geometry">
            <mxPoint x="350" y="610" as="targetPoint" />
          </mxGeometry>
        </mxCell>
        <mxCell id="TpPl5ylptQVWsR3om8G2-13" value="&lt;font face=&quot;Calibri&quot;&gt;&lt;span style=&quot;font-size: 14.6667px; white-space-collapse: preserve;&quot;&gt;Mostrar mensaje de error&lt;/span&gt;&lt;/font&gt;" style="rounded=1;whiteSpace=wrap;html=1;arcSize=40;fontColor=#000000;fillColor=#ffffc0;strokeColor=#ff0000;" vertex="1" parent="emeNvtZWzEPwYmurZ9CY-8">
          <mxGeometry x="20" y="710" width="180" height="66" as="geometry" />
        </mxCell>
        <mxCell id="TpPl5ylptQVWsR3om8G2-10" value="no" style="edgeStyle=orthogonalEdgeStyle;html=1;align=left;verticalAlign=top;endArrow=open;endSize=8;strokeColor=#ff0000;rounded=0;entryX=1;entryY=0.5;entryDx=0;entryDy=0;" edge="1" parent="emeNvtZWzEPwYmurZ9CY-8" source="TpPl5ylptQVWsR3om8G2-8" target="TpPl5ylptQVWsR3om8G2-13">
          <mxGeometry x="-1" relative="1" as="geometry">
            <mxPoint x="210" y="690" as="targetPoint" />
            <Array as="points">
              <mxPoint x="220" y="743" />
            </Array>
          </mxGeometry>
        </mxCell>
        <mxCell id="TpPl5ylptQVWsR3om8G2-15" value="Administrador" style="swimlane;startSize=20;" vertex="1" parent="emeNvtZWzEPwYmurZ9CY-8">
          <mxGeometry x="580" width="200" height="1040" as="geometry" />
        </mxCell>
        <mxCell id="TpPl5ylptQVWsR3om8G2-18" style="edgeStyle=orthogonalEdgeStyle;rounded=0;orthogonalLoop=1;jettySize=auto;html=1;entryX=0;entryY=0.5;entryDx=0;entryDy=0;strokeColor=#FF0000;" edge="1" parent="TpPl5ylptQVWsR3om8G2-15">
          <mxGeometry relative="1" as="geometry">
            <Array as="points">
              <mxPoint x="106" y="871" />
              <mxPoint x="106" y="652" />
            </Array>
            <mxPoint x="135" y="652" as="targetPoint" />
          </mxGeometry>
        </mxCell>
        <mxCell id="TpPl5ylptQVWsR3om8G2-22" value="&lt;font face=&quot;Calibri&quot;&gt;&lt;span style=&quot;font-size: 14.6667px; white-space-collapse: preserve;&quot;&gt;Notificar al administrador la solicitud&lt;/span&gt;&lt;/font&gt;" style="rounded=1;whiteSpace=wrap;html=1;arcSize=40;fontColor=#000000;fillColor=#ffffc0;strokeColor=#ff0000;" vertex="1" parent="TpPl5ylptQVWsR3om8G2-15">
          <mxGeometry x="-100" y="840" width="180" height="66" as="geometry" />
        </mxCell>
        <mxCell id="TpPl5ylptQVWsR3om8G2-25" style="edgeStyle=orthogonalEdgeStyle;rounded=0;orthogonalLoop=1;jettySize=auto;html=1;entryX=1;entryY=0.5;entryDx=0;entryDy=0;exitX=0.25;exitY=1;exitDx=0;exitDy=0;" edge="1" parent="emeNvtZWzEPwYmurZ9CY-8" source="TpPl5ylptQVWsR3om8G2-22" target="emeNvtZWzEPwYmurZ9CY-17">
          <mxGeometry relative="1" as="geometry">
            <Array as="points">
              <mxPoint x="525" y="1019" />
            </Array>
          </mxGeometry>
        </mxCell>
      </root>
    </mxGraphModel>
  </diagram>
</mxfile>
